<svg width="76" height="31" viewBox="0 0 76 31" fill="none" xmlns="http://www.w3.org/2000/svg">
<g clip-path="url(#clip0_159_6063)">
<path d="M73.8292 19.6419C72.6325 19.6419 71.9189 18.932 71.9189 17.7506V12.4989H75.9162V8.12082H71.776V3.30591H70.6094L66.0844 8.12581H59.7682L55.8444 14.5837V2.16919H50.1679V13.869C49.198 10.0865 46.0077 7.57978 41.8328 7.57978C40.5085 7.56982 39.2038 7.90243 38.0419 8.54273V7.65424L32.203 7.66914V30.5673H37.8155V24.0796C39.0315 24.8092 40.4199 25.1865 41.8328 25.1765C46.0077 25.1765 49.198 22.6599 50.1679 18.8725V24.6206H55.8394V17.6465L59.9651 24.6206H66.6604L61.0039 15.9885L63.2784 12.5039H66.2376V18.7285C66.2376 22.3968 68.4531 24.6206 72.0962 24.6206H76V19.6419H73.8292ZM41.4193 20.1432C39.2924 20.1432 37.7318 18.5349 37.7318 16.3707C37.7318 14.2015 39.2974 12.5982 41.4193 12.5982C43.5461 12.5982 45.1068 14.2065 45.1068 16.3707C45.1068 18.5399 43.5313 20.1432 41.4193 20.1432Z" fill="white"/>
<path d="M7.1584 6.88H0.920654V13.1245H7.1584V6.88Z" fill="white"/>
<path d="M3.94844 0.104248H0V4.05546H3.94844V0.104248Z" fill="white"/>
<path d="M14.5433 0.496582H10.2897V4.75059H14.5433V0.496582Z" fill="white"/>
<path d="M8.22195 1.55884H6.09509V3.68832H8.22195V1.55884Z" fill="white"/>
<path d="M27.127 7.69409V21.3149C27.127 21.8311 27.0236 22.3424 26.8267 22.8189C26.6298 23.2954 26.3393 23.7273 25.975 24.0946C25.6107 24.4569 25.1775 24.7499 24.6999 24.9434C24.2223 25.142 23.7152 25.2412 23.1983 25.2412H9.59045V7.69409H27.127Z" fill="white"/>
</g>
<defs>
<clipPath id="clip0_159_6063">
<rect width="76" height="31" fill="white"/>
</clipPath>
</defs>
</svg>
