<svg width="76" height="31" viewBox="0 0 76 31" fill="none" xmlns="http://www.w3.org/2000/svg">
<g clip-path="url(#clip0_26_6)">
<mask id="mask0_26_6" style="mask-type:luminance" maskUnits="userSpaceOnUse" x="0" y="0" width="76" height="31">
<path d="M76 0H0V31H76V0Z" fill="white"/>
</mask>
<g mask="url(#mask0_26_6)">
<path d="M73.8292 19.6417C72.6325 19.6417 71.9189 18.9318 71.9189 17.7504V12.4987H75.9162V8.12058H71.776V3.30567H70.6094L66.0844 8.12557H59.7682L55.8444 14.5835V2.16895H50.1679V13.8688C49.198 10.0863 46.0077 7.57954 41.8328 7.57954C40.5085 7.56958 39.2038 7.90219 38.0419 8.54249V7.654L32.203 7.6689V30.5671H37.8155V24.0794C39.0315 24.809 40.4199 25.1863 41.8328 25.1763C46.0077 25.1763 49.198 22.6597 50.1679 18.8723V24.6204H55.8394V17.6463L59.9651 24.6204H66.6604L61.0039 15.9883L63.2784 12.5037H66.2376V18.7283C66.2376 22.3966 68.4531 24.6204 72.0962 24.6204H76V19.6417H73.8292ZM41.4193 20.143C39.2924 20.143 37.7318 18.5347 37.7318 16.3705C37.7318 14.2013 39.2974 12.598 41.4193 12.598C43.5461 12.598 45.1068 14.2063 45.1068 16.3705C45.1068 18.5397 43.5313 20.143 41.4193 20.143Z" fill="white"/>
<path d="M7.1584 6.87988H0.920654V13.1244H7.1584V6.87988Z" fill="white"/>
<path d="M3.94844 0.104004H0V4.05522H3.94844V0.104004Z" fill="white"/>
<path d="M14.5433 0.496094H10.2897V4.7501H14.5433V0.496094Z" fill="white"/>
<path d="M8.22195 1.55859H6.09509V3.68807H8.22195V1.55859Z" fill="white"/>
<path d="M27.127 7.69385V21.3147C27.127 21.8309 27.0236 22.3422 26.8267 22.8187C26.6298 23.2952 26.3393 23.7271 25.975 24.0944C25.6107 24.4567 25.1775 24.7497 24.6999 24.9432C24.2223 25.1418 23.7152 25.241 23.1983 25.241H9.59045V7.69385H27.127Z" fill="white"/>
</g>
</g>
<defs>
<clipPath id="clip0_26_6">
<rect width="76" height="31" fill="white"/>
</clipPath>
</defs>
</svg>
